<svg xmlns="http://www.w3.org/2000/svg" version="1.1" xmlns:xlink="http://www.w3.org/1999/xlink" xmlns:svgjs="http://svgjs.dev/svgjs" width="2000" height="1500" viewBox="0 0 2000 1500"><rect width="2000" height="1500" fill="#0c1d36"></rect><g transform="matrix(0.4444444444444444,0,0,0.4444444444444444,555.5555555555557,250)"><svg viewBox="0 0 320 360" data-background-color="#0c1d36" preserveAspectRatio="xMidYMid meet" height="2250" width="2000" xmlns="http://www.w3.org/2000/svg" xmlns:xlink="http://www.w3.org/1999/xlink"><g id="tight-bounds" transform="matrix(1,0,0,1,0,0)"><svg viewBox="0 0 320 360" height="360" width="320"><g><svg></svg></g><g><svg viewBox="0 0 320 360" height="360" width="320"><g><path d="M165.217 303.356c-1.404-1.755-2.809-0.702-2.808-1.755-8.426 2.106-24.223-3.511-30.894-2.809 1.404-2.106-2.106-1.755-2.106-3.159-1.404 2.106-2.809 0-4.915 0.702-2.106-5.266-10.532-1.404-11.585-8.075-4.915 0-6.67-2.809-11.586-5.617 0.351-0.351 0.702-0.351 1.054-0.702-2.457-0.351-2.457-1.755-4.564-1.755l0.702-1.405c-3.862-0.702-5.266-6.67-10.883-8.776-1.755-0.351-5.617-6.319-7.723-7.724-1.053-0.702-2.809-0.702-0.352-1.053-0.351-0.351-0.351-1.053 0-1.404-2.457-0.702-2.809-2.809-5.968-3.862-0.351-1.053 0.702-1.755 0-2.457-0.702-0.351-1.755 0.351-2.457 0-0.351 6.319 6.67 7.021 8.777 12.287-0.702-0.702-1.755-2.809-2.458-1.404-0.351 1.053 2.809 4.915 2.809 2.808-1.053 0.702-1.404-1.053-0.703-1.404 1.053 1.755 3.16 1.404 3.16 2.809-1.053 1.053-2.457-1.053-2.106 0.702 3.16 1.755 2.809 3.511 4.563 5.968-1.404-1.755-1.755 1.404-3.159 0-0.351-5.266-6.319-4.213-6.319-9.479-0.702-1.755-1.404-0.351-2.458-1.053 1.404-1.404-4.213-6.319-4.213-4.564-1.755-2.106-0.702-2.809-1.053-4.213-1.404-0.351-0.351 1.404-1.404 0.351 1.404-2.457-1.755-5.617-3.862-8.074l1.405-0.702c-2.457-1.404-2.809-4.213-4.564-7.373-2.106 3.16 4.213 10.181 3.159 11.585 0 0.351 2.457 3.16 3.16 4.564 2.809 4.915 4.915 10.883 8.777 13.692-0.702-0.351-0.351-2.457 0.702-1.404 0 1.053-0.702 2.106-0.702 3.159 2.106 2.106 3.862 3.862 5.968 5.968-4.564-2.809-9.128-5.617-12.288-9.83 1.755-0.351 3.511 2.809 4.915 2.458-3.511-2.809-2.457-3.862-3.861-7.372-1.404-1.053 0.351 1.404-1.054 1.755-4.564-4.213-8.075-6.67-10.181-10.532 0.351-0.351 0.702-0.702 0.703-1.404-0.351-0.351-0.351-0.351-0.703-0.702 2.106 2.106 2.809 3.862 5.266 4.212-1.053-1.053 0-1.404-1.404-2.457-0.702-1.404-1.755 0.702-2.457-0.351 0.702-1.053 0-2.457 0-3.511-0.702 0-1.404 0-1.756-1.053-0.702-0.351-1.053 0-1.404 0.702-0.351-0.351-0.351-1.053-0.702-1.404v-0.351c-0.351-0.351-0.702-1.053-1.053-1.405-2.809-7.372-4.564-17.202-8.426-23.521 1.053-4.213-0.702-12.638-1.755-14.745 1.053-1.755 0.351-9.83-0.351-11.234-1.755 0.702 0.351 4.564-1.404 5.617-1.755-7.723 1.053-16.5 0.351-23.521 0.702 0 1.404 0 1.404-0.351-1.053-1.053 0.702-3.16 0.351-5.617 1.404-3.16-3.16 4.564-3.16 7.723-0.351 0.702-1.755 0-1.404 1.756 0 2.457 0.702 7.372-0.702 10.883-0.702 0-0.702-0.702-1.404-0.351-0.351 1.755-0.702 3.862-1.053 5.617-0.351-0.702-0.702-1.755-0.703-2.107-1.755-8.777 0-18.958-0.702-26.33 1.404 0 1.404-2.106 2.458-2.808-0.351 2.809-1.053 6.319 0.702 7.021 1.404-13.692 4.213-28.787 10.532-43.532 4.564-10.883 11.234-21.766 19.308-30.543 0.702 1.053-0.351 3.511 0 4.564 7.021-7.372 11.585-16.149 19.309-21.064 0.351 1.755-3.16 3.16-3.16 4.564 3.16-3.16 4.213-2.106 7.724-3.159 1.053-1.404-1.404 0-1.756-1.405 2.106-1.404 3.511-3.16 4.915-4.212 0 0.351-0.351 0.351-0.351 0.702 3.862-1.053 4.213-3.16 7.022-3.862-0.351-0.351-1.053-0.702-2.107-0.351 0.702-0.351 1.755-1.053 2.809-1.404-0.351 0-0.351 0.351-0.702 0.351 2.106-1.053 0.351 0.351 0.351 1.053 0.351 0 0.702-0.351 0.702-0.351-2.106 1.404-3.511 2.106-4.213 4.564 1.053-0.702 1.404 0 2.809-1.054 1.404-0.702-0.351-1.755 0.702-2.457 1.053 0.702 2.457 0.351 3.51 0.351 0-0.702 0.351-1.404 1.054-1.755 0.351-0.702 0-1.053-0.352-1.053 0.351-0.351 0.702-0.351 1.405-0.703 0 0 0.351 0 0.351 0.351 5.968-2.809 12.638-5.266 18.957-7.372 3.862-0.351 8.777-0.351 10.883-2.808-0.702 0-1.404 0.351-1.755 0 0.351 0 1.053-0.351 1.404-0.351 0.702 0.702 1.755 0 0.702 1.404 0.351 0 0.351 0 0.703-0.351 0 0.351 0 0.351 0.351 0.702 0.351 0 0.702-0.351 1.053-1.053 0.351 0 0.702 0 1.053-0.351l-0.351 0.351c2.809-0.702 5.266-0.351 9.128-1.054 0-0.351 0-0.702 0-1.053 0.702 0 1.053-0.351 1.755-0.351v0.351c1.404-0.702 2.809 0.702 2.808 0 0.351 0 0.351 0 0.703 0 0 0.702-0.351 1.053-0.351 1.405 1.755 0 2.809 0 3.51-1.054-0.351-0.351-0.702-0.351-1.053-0.351 0.702 0 1.404-0.351 2.106-0.702 1.053 0.351 1.404 0.702 1.405 2.107 1.755-3.16 7.372 0.702 9.829 0 1.053 0 0.702-1.404 1.405-2.107 0.351 0 0.702 0 1.053 0 1.755 1.404 4.213 2.809 7.372 3.16-2.809-0.702 0.351-1.053 0.702-1.405-0.702 0-0.702-0.351-0.702-0.702 1.053 0 2.106 0.351 3.16 0.351 0 0.702 0.351 1.053 1.053 1.054 0.702 0 0.702-0.351 0.702-1.054 1.053 0 1.755 0 2.809 0.351-0.351 1.404 1.755 1.755 2.457 2.809-2.809-0.702-5.968-1.755-7.021 0 11.234 2.457 23.521 5.968 35.457 11.936 0 0 0 0 0 0.351h0.352c2.106 1.053 4.213 2.106 6.319 3.16 1.404 0.702 2.457 1.404 3.861 2.457 0 0.351 0 0.702 0.703 0.702h0.351c1.404 1.053 2.809 1.755 4.212 2.809 1.404 2.106 2.809 4.915 5.266 4.213 5.266 8.075 10.883 11.234 15.447 19.659 0.351-1.404 1.404 3.16 3.16 3.511-2.809-0.351 1.755 1.755-1.053 1.404 2.457 2.457 3.16 3.511 3.51 6.319-0.702-1.404-1.053-1.755-1.404-0.351-0.351 2.106 2.457-0.351 3.511 1.756-2.106 0-1.404 1.404-1.054 3.159 1.053-1.053 0.702-2.106 1.756-1.755 1.404 1.404-0.702 1.755-0.351 2.809 1.053-1.404 1.404-0.702 2.808 0-1.755 0.351 1.053 2.809-1.053 1.755 1.404 1.755 1.755 2.809 1.053 4.564-1.404-2.106-0.351-3.511-2.457-3.16 4.213 3.511 2.106 11.585 7.021 12.287-3.16 0.702 0 2.106-1.755 2.458 2.106 0.702 1.053 3.511 3.51 4.213-0.351 1.755-1.053 2.809-1.404 4.563 1.053 1.404 1.404 4.213 3.16 4.564-1.053 1.053-0.351 3.862-1.404 4.915 1.404-0.702 2.106-0.702 3.159 0.702-1.755 1.404-0.351 2.809-1.404 3.16 3.16 8.075-0.702 24.575 1.053 30.894-2.106-1.053-1.404 2.457-2.808 2.457 2.457 1.053 0.351 2.809 1.404 4.564-4.915 2.809 0 10.532-6.67 12.287 0.702 4.915-2.106 7.021-4.213 12.288-0.351-0.351-0.351-0.702-0.702-1.054-0.351 2.457-1.755 2.809-1.054 4.915l-1.404-0.702c0 3.862-5.968 5.968-7.372 11.936-0.351 1.755-5.617 6.319-7.022 8.777-0.702 1.053-0.351 2.809-1.053 0.351-0.351 0.351-1.053 0.351-1.404 0.351-0.351 2.457-2.457 3.16-3.16 6.319-0.702 0.351-1.755-0.702-2.457 0.351 0 0.702 0.702 1.755 0.351 2.458 6.319-0.351 6.319-7.723 11.234-10.181-0.351 1.053-2.457 2.106-1.053 2.808 1.053 0 4.213-3.511 2.457-3.159 1.053 0.702-1.053 1.404-1.404 1.053 1.755-1.404 1.053-3.16 2.458-3.511 1.053 0.702-1.053 2.457 1.053 2.107 1.404-3.16 3.16-3.511 5.266-5.266-1.404 1.404 1.755 1.755 0.351 3.159-5.266 1.053-3.511 7.021-8.777 7.724-1.404 1.053-0.351 1.404-0.702 2.457-1.755-1.053-5.617 4.915-4.213 4.564-1.755 1.755-2.809 1.053-4.212 1.404-0.351 1.404 1.404 0.351 0.702 1.405-2.457-1.053-5.617 2.457-7.724 4.915l-1.053-1.054c-1.053 2.809-3.862 3.16-7.021 5.266 3.511 1.755 9.479-5.617 11.234-4.564 0.351 0 3.16-2.809 4.213-3.861 4.564-3.511 10.181-6.319 12.287-10.181-0.351 0.702-2.457 0.702-1.404-0.351 1.053-0.351 2.106 0.351 3.159 0.351 5.617-7.723 12.638-14.043 17.905-23.17 0.351-0.351 0.702-1.053 1.053-1.756-0.702 2.106-1.755 3.862-2.458 5.968-5.617 3.862-7.723 15.096-14.393 16.851 0.351 3.862-3.16 4.915-4.915 9.479-1.053 1.404-1.755-1.053-2.809 0.702 1.053 4.915-8.777 4.564-8.425 9.128-0.702 0.351-1.755 0.702-2.458 1.404h-0.351c-0.351 0.351-0.351 0.351-0.702 0.702-1.755 1.053-3.16 2.106-4.564 3.16-4.915 2.809-11.585 4.915-16.851 7.723v-0.351c-1.404 0.702-3.16 0.351-2.809 1.756-1.053 0.702-2.106 1.404-3.159 2.106-0.351 0-0.351 0-0.702 0 0 0-0.351-0.351-0.702-0.351-0.702 0-0.702 0-1.054 0.351-4.564 0.351-10.532 2.457-12.287 3.862-1.755-1.053-9.83 0.702-11.234 1.404 0.702 1.053 2.809 0 4.564 0-1.053 0.351-2.106 0.702-2.458 1.404-0.351 0-0.351 0-0.702 0-0.351-1.053-1.404 0-1.755-0.351h0.351c-0.351-1.404-1.404-2.106-3.16-1.755 0 0.702 0 1.053-0.351 1.755 0.702 0 2.809-1.053 2.809 0-0.351 0-0.351 0.351 0 0.351-0.702 0.702-1.755 0.702-2.458 1.054-1.404 0-3.16 0-4.563 0-0.351-0.351-0.702-0.351-1.405-0.703-0.351 0.351-1.053 0.351-1.404 0.703-2.106 0-4.564 0.351-6.319 0.702 0-0.702 0-1.404-0.702-1.405-1.053 1.404-3.16-0.351-5.617 0.352-2.457-0.702 1.404 1.053 4.915 1.755-0.351 0.351-0.702 0.702-1.756 1.053M116.068 308.271c-4.915-4.564-15.096-6.67-16.851-10.181-2.809-0.351-7.021-5.617-10.532-6.319 1.755 0 0.351-1.053 0-1.755-0.702 0.702-1.404 1.053-2.106 1.053 0-2.809-2.809-4.564-5.266-6.319 1.755 1.053 3.16 1.755 5.266 2.106 0-0.702 0-1.404 0.702-1.404 2.457 2.457 5.266 4.915 8.425 7.372 4.213 3.862 25.979 13.692 29.841 15.447 0 0-0.702 1.404-0.351 1.404 1.755 1.053 3.16-1.053 3.511 1.404-5.617 0.702-7.723-3.16-12.639-2.808M277.909 226.824v0.351 0c-0.351 0 0-0.351 0-0.351M136.079 64.281c-0.351 0.351-0.702 0.351-0.702 0.351 0-0.351 0.351-0.351 0.702-0.351M129.409 66.036c0 0.351 0 0.351 0 0 0 0.351 0 0.351 0 0 0 0.351 0 0 0 0M106.238 73.408v0c0.351-0.351 0.351-0.351 0.703-0.351-0.351 0-0.702 0.351-0.703 0.351M162.409 61.823c-0.702 0-1.053 0-1.404-0.351 0.351 0 0.702 0 1.053 0h0.351c0 0 0 0 0 0.351M168.728 62.525c-0.351-0.351-1.404-0.702-2.457-0.702 0-0.351 0.351-0.702 0.351-0.702 0.351 0 0.702 0 1.053 0 0 0 0.351 0 0.351 0.351 0 0 0 0 0-0.351 0.351 0 0.351 0 0.702 0 0.351 0.702 0.702 1.053 0 1.404M180.313 63.579c-1.755 0.351-2.809-0.351-4.564-1.405 1.053 0 2.457 0.351 3.511 0.702 0.351 0 0.702 0.351 1.053 0.703M305.292 113.43c-0.702 0.351-1.053 0.351-1.755-1.053-5.617-11.936-15.798-29.138-30.543-43.532-14.394-14.745-33.702-26.681-51.255-33.001 1.053 0.351 2.457 1.053 1.755 1.756-15.447-5.968-30.192-9.479-44.234-10.883-37.915-5.968-77.585 2.106-108.128 21.766 0.351 0.702 0.351 1.053-0.702 1.755-11.234 7.021-27.032 19.309-39.671 35.458-12.638 16.149-22.468 36.511-26.681 54.766 0.351-1.053 0.702-2.809 1.405-2.107-9.128 36.16-6.67 67.053 5.968 93.735 0.702-0.702-1.755-4.213 0.351-3.862 1.404 3.862 3.16 8.075 5.266 11.936 2.457 5.617 5.266 12.989 9.128 14.745-9.83-19.309-16.5-41.426-17.203-61.085 1.404 2.809 1.053 8.777 3.16 11.234 0.702-13.34-2.457-31.245 2.106-43.883-1.053 6.67-1.755 15.798-1.053 24.925 0 6.67 3.16 25.277 5.266 27.032-0.351-0.351-0.351-2.106 0-2.106 1.053 2.106-1.404 3.16 0.351 3.511 0-0.702 0.351-0.702 0.702-0.703 3.511 7.723 8.075 19.66 11.585 25.628 4.213 7.723 9.83 14.745 16.149 21.064 0 0.351 0.351 0.351 0.352 0.702 0.702 1.755 3.16 3.862 3.861 5.266 0.351 0.702-0.351 1.755 0 2.458 5.266 9.83 12.989 19.66 22.468 27.383 5.968 7.021 15.447 14.394 27.032 20.713 11.234 5.968 24.223 10.883 36.16 13.691 8.426 2.106 18.606 2.457 24.926 3.862 8.426 1.755 23.17-0.702 30.542-2.107 44.234-6.67 88.117-36.862 110.235-80.393 22.819-43.883 22.117-97.596 2.457-138.671" fill="#f9cc0b" fill-rule="nonzero" stroke="none" stroke-width="1" stroke-linecap="butt" stroke-linejoin="miter" stroke-miterlimit="10" stroke-dasharray="" stroke-dashoffset="0" font-family="none" font-weight="none" font-size="none" text-anchor="none" style="mix-blend-mode: normal" data-fill-palette-color="tertiary"></path></g><g transform="matrix(1,0,0,1,80,152.7388535031847)"><svg viewBox="0 0 160 54.522292993630586" height="54.522292993630586" width="160"><g><svg viewBox="0 0 160 54.522292993630586" height="54.522292993630586" width="160"><g><svg viewBox="0 0 160 54.522292993630586" height="54.522292993630586" width="160"><g><svg viewBox="0 0 160 54.522292993630586" height="54.522292993630586" width="160"><g id="textblocktransform"><svg viewBox="0 0 160 54.522292993630586" height="54.522292993630586" width="160" id="textblock"><g><svg viewBox="0 0 160 54.522292993630586" height="54.522292993630586" width="160"><g transform="matrix(1,0,0,1,0,0)"><svg width="160" viewBox="0.1499999999999999 -40.1 126.58999999999999 43.800000000000004" height="54.522292993630586" data-palette-color="#f9cc0b"><path d="M3.15 0.4L3.5-1.9Q5.7-2.3 6.4-3.08 7.1-3.85 7.1-6L7.1-6 7.15-27Q7.15-28.6 6.78-29.15 6.4-29.7 5.3-29.7L5.3-29.7Q4.8-29.7 4.3-29.65 3.8-29.6 3.6-29.6L3.6-29.6 3.5-29.8 3.85-32Q4.45-31.95 6.1-31.9 7.75-31.85 9.4-31.85L9.4-31.85Q10.95-31.85 12.93-31.93 14.9-32 15.7-32.05L15.7-32.05Q20.9-32.05 23.65-29.75 26.4-27.45 26.4-23.15L26.4-23.15Q26.4-20.35 24.78-17.82 23.15-15.3 20.5-13.75 17.85-12.2 14.95-12.2L14.95-12.2 10.75-12.2 10.65-7.3Q10.65-4.9 10.8-3.88 10.95-2.85 11.38-2.53 11.8-2.2 12.85-2.2L12.85-2.2Q13.7-2.2 14.48-2.25 15.25-2.3 15.55-2.35L15.55-2.35 15.65-2.15 15.2 0.15Q14.7 0.1 13.38 0.05 12.05 0 10.6 0L10.6 0Q8.6 0 5.93 0.15 3.25 0.3 3.15 0.4L3.15 0.4ZM16.15-14.4Q19.15-14.9 20.68-16.85 22.2-18.8 22.2-22.2L22.2-22.2Q22.2-26.05 19.93-27.83 17.65-29.6 12.8-29.6L12.8-29.6Q11.9-29.6 11.7-29.5 11.5-29.4 11.45-28.9L11.45-28.9Q11-22.55 10.85-15.15L10.85-15.15 16.15-14.4ZM30-1.8Q31.5-1.95 32-2.78 32.5-3.6 32.5-5.95L32.5-5.95 32.5-16.95Q32.5-18.6 32.05-19.3 31.6-20 30.6-20L30.6-20Q30.2-20 29.92-19.95 29.65-19.9 29.55-19.85L29.55-19.85 29.3-20.2 29.45-21.75Q31.35-22.1 33.47-22.6 35.6-23.1 36.2-23.25L36.2-23.25 36.55-22.95Q36.45-22.5 36.25-20.88 36.05-19.25 36.1-17.8L36.1-17.8 36.3-17.65Q37.8-20 39.82-21.5 41.85-23 43.35-23L43.35-23Q44.05-23 44.42-22.93 44.8-22.85 44.9-22.8L44.9-22.8 45.05-22.6Q44.95-21.9 44.62-19.63 44.3-17.35 44.25-15.45L44.25-15.45 42.3-15.3Q42.3-17.35 42.02-18.03 41.75-18.7 40.95-18.7L40.95-18.7Q39.85-18.7 38.6-17.78 37.35-16.85 36.3-15.3L36.3-15.3Q36.25-13.85 36.1-10.5 35.95-7.15 35.9-5.1L35.9-5.1Q35.9-3.4 36.4-2.8 36.9-2.2 38.3-2.2L38.3-2.2Q38.95-2.2 39.6-2.25 40.25-2.3 40.5-2.3L40.5-2.3 40.55-2.1 40.1 0.1Q39.6 0.1 38.1 0.05 36.6 0 35 0L35 0Q33.15 0 31.65 0.08 30.15 0.15 29.75 0.2L29.75 0.2 30-1.8ZM64.3 0.6Q60.25 0.6 59.85-3.45L59.85-3.45 59.65-3.5Q57.85-1.7 56.37-0.65 54.9 0.4 54.15 0.4L54.15 0.4Q51.35 0.4 49.55-1.35 47.75-3.1 47.75-5.8L47.75-5.8Q47.75-7.25 48.47-8.35 49.2-9.45 50.4-9.8L50.4-9.8 59.9-12.4 59.95-14.6Q59.95-17.1 58.8-18.5 57.65-19.9 55.55-19.9L55.55-19.9Q54.15-19.9 52.6-19.25 51.05-18.6 49.55-17.4L49.55-17.4 49.3-17.55 48.7-19.7Q51.05-21.05 53.42-22.13 55.8-23.2 56.85-23.2L56.85-23.2Q60.1-23.2 61.95-21.5 63.8-19.8 63.8-16.75L63.8-16.75Q63.8-15.65 63.45-12.25L63.45-12.25Q62.9-6.75 62.9-5.25L62.9-5.25Q62.9-4.15 63.45-3.55 64-2.95 64.95-2.95L64.95-2.95Q65.75-2.95 66.6-3.33 67.45-3.7 67.95-4.2L67.95-4.2 68.65-3.4Q67.9-2.15 66.72-0.98 65.55 0.2 64.3 0.6L64.3 0.6ZM55-3Q55.95-3 57.22-3.68 58.5-4.35 59.55-5.4L59.55-5.4 59.8-10.5 53-8.45Q51.55-8 51.55-6.35L51.55-6.35Q51.55-4.9 52.52-3.95 53.5-3 55-3L55-3ZM79.29 0.6Q75.89 0.6 74.49-0.78 73.09-2.15 73.09-5.45L73.09-5.45 73.09-17.75Q73.09-19.1 72.49-19.65 71.89-20.2 70.24-20.25L70.24-20.25 70.04-20.55 70.29-22.05Q71.74-22.75 73.12-23.78 74.49-24.8 75.37-25.58 76.24-26.35 76.49-26.6L76.49-26.6 77.49-26.2Q77.44-25.95 77.34-25 77.24-24.05 77.09-22.45L77.09-22.45 84.44-22.6 84.59-22.45 84.14-19.8 76.89-19.95Q76.54-14.45 76.54-7.45L76.54-7.45Q76.54-4.9 77.42-3.85 78.29-2.8 80.44-2.8L80.44-2.8Q81.19-2.8 81.94-3 82.69-3.2 83.19-3.43 83.69-3.65 83.84-3.7L83.84-3.7 84.34-2.4Q84.04-2.15 83.07-1.45 82.09-0.75 80.97-0.08 79.84 0.6 79.29 0.6L79.29 0.6ZM87.69 0.6L87.89-1.45Q89.39-1.85 90.04-2.63 90.69-3.4 90.69-4.7L90.69-4.7 90.69-17.4Q90.69-20.1 88.84-20.1L88.84-20.1Q88.49-20.1 88.09-20.03 87.69-19.95 87.59-19.9L87.59-19.9 87.79-21.75Q89.89-22.05 92.12-22.55 94.34-23.05 94.99-23.2L94.99-23.2 95.24-22.6Q94.79-21.55 94.44-16.18 94.09-10.8 94.09-4.9L94.09-4.9Q94.09-3.45 94.49-2.78 94.89-2.1 95.84-2.1L95.84-2.1Q96.39-2.1 96.89-2.15 97.39-2.2 97.59-2.2L97.59-2.2 97.69-2 97.29 0.15Q96.84 0.1 95.59 0.05 94.34 0 92.84 0L92.84 0Q91.54 0 89.87 0.25 88.19 0.5 87.69 0.6L87.69 0.6ZM92.09-29.1Q90.94-29.1 90.29-29.85 89.64-30.6 89.64-31.65L89.64-31.65Q89.64-32.85 90.49-33.73 91.34-34.6 92.59-34.6L92.59-34.6Q93.74-34.6 94.39-33.85 95.04-33.1 95.04-32.05L95.04-32.05Q95.04-30.85 94.19-29.98 93.34-29.1 92.09-29.1L92.09-29.1ZM101.29-1.75Q102.59-1.95 103.14-2.48 103.69-3 103.81-3.85 103.94-4.7 103.94-6.75L103.94-6.75 103.94-31.3Q103.94-34 102.09-34L102.09-34Q101.74-34 101.34-33.93 100.94-33.85 100.84-33.8L100.84-33.8Q100.84-34.1 100.94-34.7L100.94-34.7 101.04-35.65Q103.19-35.95 105.49-36.45 107.79-36.95 108.44-37.1L108.44-37.1 108.74-36.45Q108.19-35.6 107.76-25.85 107.34-16.1 107.34-4.9L107.34-4.9Q107.34-3.35 107.74-2.73 108.14-2.1 109.14-2.1L109.14-2.1Q109.69-2.1 110.19-2.15 110.69-2.2 110.89-2.2L110.89-2.2 110.99-2 110.54 0.15Q110.09 0.1 108.79 0.05 107.49 0 105.99 0L105.99 0Q104.69 0 103.11 0.13 101.54 0.25 101.04 0.3L101.04 0.3 101.29-1.75ZM108.59-11.7L108.69-12.5 114.64-18.2Q115.34-18.85 115.59-19.23 115.84-19.6 115.84-19.95L115.84-19.95Q115.84-20.5 115.19-20.75 114.54-21 113.09-21L113.09-21 112.94-21.25 113.39-22.7Q113.94-22.7 115.41-22.65 116.89-22.6 118.44-22.6L118.44-22.6Q119.64-22.6 121.19-22.73 122.74-22.85 123.19-22.9L123.19-22.9 123.34-22.65 122.94-21.1Q120.89-20.5 118.81-18.8 116.74-17.1 113.84-14.2L113.84-14.2Q113.84-14.2 112.29-12.65L112.29-12.65 117.54-5.9Q119.24-3.7 120.64-2.75 122.04-1.8 123.59-1.8L123.59-1.8 123.74-1.55 123.44-0.1Q122.99 0.05 121.59 0.38 120.19 0.7 119.74 0.7L119.74 0.7Q118.99 0.7 117.99 0.2L117.99 0.2Q117.24-0.2 116.46-1.03 115.69-1.85 114.49-3.55L114.49-3.55 108.59-11.7Z" opacity="1" transform="matrix(1,0,0,1,0,0)" fill="#f9cc0b" class="wordmark-text-0" data-fill-palette-color="primary" id="text-0"></path></svg></g></svg></g></svg></g></svg></g></svg></g></svg></g></svg></g></svg></g><defs></defs></svg><rect width="320" height="360" fill="none" stroke="none" visibility="hidden"></rect></g></svg></g></svg>